<svg width="581" height="571" viewBox="0 0 581 571" fill="none" xmlns="http://www.w3.org/2000/svg">
<path d="M438.071 217.439C440.976 217.355 443.369 218.45 445.59 220.219C448.068 222.24 451.144 223.504 454.391 223.504C458.577 223.588 462.251 225.02 465.925 226.536C470.197 228.221 474.469 228.979 478.827 226.957C479.596 226.62 480.621 226.284 481.219 226.536C483.697 227.715 486.26 227.21 488.738 226.957C489.763 226.789 490.789 226.705 491.814 226.789C494.121 226.957 495.915 226.368 497.282 224.346C497.795 223.504 498.735 222.662 499.675 222.493C504.374 221.482 507.962 218.534 511.893 216.26C515.652 214.154 518.13 211.29 520.01 207.837C521.548 204.973 523.171 202.53 525.82 200.592C525.99 200.508 526.161 200.34 526.332 200.256C528.895 198.571 530.177 196.128 529.921 192.759C529.75 189.979 530.092 187.199 531.202 184.588C531.459 183.914 531.8 183.156 532.228 182.482C532.997 181.135 533.338 179.197 533.082 177.681C532.399 174.48 531.544 171.195 530.092 168.247C528.981 165.888 528.297 163.614 527.87 161.171C527.614 159.824 527.016 158.307 526.076 157.297C522.231 153.253 520.01 148.873 521.462 143.145C521.804 141.882 521.462 140.029 520.693 139.018C518.472 135.986 515.994 133.206 513.431 130.426C511.295 128.068 508.56 128.657 507.621 131.606C507.108 133.122 507.621 135.059 505.741 135.986C502.665 132.785 502.58 132.869 497.282 131.69C494.035 130.932 490.874 129.752 488.14 127.562C484.124 124.277 480.365 120.571 474.811 119.644C474.213 119.56 473.615 119.223 473.188 118.802C471.564 117.117 469.514 117.033 467.378 116.865C465.583 116.696 463.704 116.359 461.91 116.107C461.91 115.685 461.91 115.18 461.91 114.759C467.378 114.169 471.821 111.305 476.178 108.61C477.716 107.599 479.169 107.262 480.877 107.599C484.551 108.357 488.311 109.031 491.643 109.621C493.95 107.768 495.83 106.083 497.88 104.735C500.273 103.219 501.554 101.282 501.127 98.5018C500.871 96.9856 500.956 95.7222 502.152 94.5429C503.947 92.774 503.861 90.7524 502.152 88.9835C500.016 86.625 500.187 84.6034 502.323 82.4133C502.921 81.8237 503.178 81.0656 503.776 80.1391C502.75 78.7913 501.725 77.5277 500.785 76.2642C500.871 74.3269 500.785 72.4738 501.042 70.6207C501.469 67.0829 503.178 64.3874 506.852 63.2081C508.39 62.7027 510.013 62.1974 511.465 61.692C516.934 65.8194 519.668 65.6509 524.709 61.1023C525.82 60.0915 526.93 59.2492 527.956 58.3226C528.383 54.0267 528.383 54.0267 530.775 50.8259C531.886 49.3097 533.167 47.962 534.278 46.4458C539.319 39.6229 539.746 37.6855 537.781 30.3572C537.696 29.936 537.61 29.5149 537.44 29.178C535.389 25.8087 533.424 22.1866 528.554 22.355C527.699 22.355 526.674 22.4393 526.161 21.9339C523.427 19.4069 520.266 20.2492 517.105 20.6704C515.652 20.8388 514.2 21.0916 512.747 21.26C509.5 21.5127 506.937 20.5862 505.655 17.3853C504.63 14.7741 502.58 13.0894 500.016 11.8259C497.795 10.7309 495.573 9.13042 494.121 7.19306C491.13 3.2341 487.2 1.9706 482.586 1.71791C480.963 1.63367 479.254 1.46527 477.631 1.0441C471.992 -0.303629 466.352 -0.556349 460.799 1.54948C458.577 2.39181 456.356 2.81296 454.049 1.63369C453.195 1.21253 451.827 1.04412 451.059 1.38106C446.359 3.48688 442.002 6.01388 441.318 11.9102C440.976 14.5214 440.293 17.1326 439.866 19.5754C432.603 21.7654 430.809 22.1866 429.869 27.1564C428.417 27.0721 426.964 26.9037 425.512 27.0722C423.119 27.4091 422.008 28.5884 422.265 30.8626C422.521 33.3054 422.692 36.0008 423.717 38.1909C425.17 41.2233 424.828 43.7503 423.376 46.53C422.692 47.7935 421.667 49.2254 421.838 50.4889C422.35 54.7848 421.752 59.3334 424.401 63.2081C424.572 63.4608 424.315 63.9662 424.23 64.8086C423.205 65.0613 422.094 65.3982 420.898 65.5667C416.711 66.3248 413.293 67.9252 412.097 72.4738C411.585 74.4111 409.961 76.0959 409.278 78.0332C407.74 82.1606 404.664 84.1822 400.648 85.6984C393.129 88.5623 385.781 91.7631 378.433 94.7955C375.528 95.9748 372.709 97.3226 369.804 98.5018C369.377 98.6703 368.949 98.8387 368.522 99.0072C364.763 100.523 361.943 100.439 357.928 98.4176C360.576 97.7437 362.712 97.2384 365.446 96.5645V96.4802C365.19 92.5212 367.839 90.8367 371.171 89.4047C375.187 87.72 377.323 84.4349 377.75 80.1391C378.092 76.854 378.177 73.4846 378.433 70.2837C377.237 67.6725 374.845 65.9036 372.538 65.7351C367.668 65.3982 364.677 62.1974 361.26 59.5861C360.833 59.2492 360.064 59.1649 359.209 58.9122C356.219 60.9338 353.143 63.0397 349.896 65.1455C344.77 62.2816 339.814 60.0915 334.26 62.1131C333.15 63.2082 332.124 64.2189 331.099 65.2297C329.817 64.7243 328.878 64.3874 327.852 64.0504C326.827 63.7135 325.887 63.2924 324.862 63.1239C322.299 62.8712 320.419 65.4824 321.615 67.7567C322.213 68.8517 323.068 69.7784 323.751 70.8734C324.691 72.3054 324.606 73.5688 323.495 74.9165C322.982 75.5904 322.47 76.2643 321.871 76.9381C321.786 77.1066 321.615 77.2751 321.53 77.3593C315.72 75.7589 313.242 80.2232 310.166 83.761C308.372 82.666 307.005 81.4867 305.296 80.7286C302.818 79.6336 300.169 78.7913 297.606 78.0332C294.787 77.2751 291.967 76.2643 288.891 77.0224C286.755 77.612 284.875 78.4544 284.619 80.9814C284.448 82.666 283.679 84.0137 282.056 84.6876C281.97 84.6876 281.97 84.7719 281.885 84.7719L280.689 84.3507L278.126 83.4241C277.955 83.5925 277.784 83.761 277.613 83.8452C275.733 85.5299 274.024 87.1303 272.145 88.3938C269.923 89.91 268.556 91.7632 268.3 94.0375C268.3 94.2902 268.214 94.5428 268.214 94.7955C266.42 95.6379 264.199 95.8906 263.515 97.0699C260.952 101.282 257.791 105.493 258.047 110.8C258.132 112.148 258.218 113.411 258.389 114.759C258.559 116.78 258.816 118.718 258.901 120.739C259.072 123.603 259.927 125.878 262.063 127.983C263.344 129.247 264.028 131.184 264.882 132.785C266.078 134.975 267.189 137.165 269.24 138.85C270.35 139.776 271.461 140.955 272.059 142.219C273.17 144.83 275.221 146.009 277.869 146.599C278.467 146.767 279.065 147.02 279.663 147.273C284.961 149.8 289.404 153.927 295.299 155.443C297.435 157.97 300.853 158.476 303.416 160.245C306.15 162.182 308.372 164.709 310.849 166.983C311.618 167.742 312.473 168.415 313.242 169.005C314.951 170.268 316.83 171.279 319.137 170.858C320.932 170.521 322.384 171.027 324.007 171.785C325.716 172.543 327.596 173.217 329.476 173.301C335.457 173.722 341.096 175.322 346.393 178.102C349.554 179.787 353.057 181.135 356.731 180.713C362.541 180.04 368.437 179.703 374.161 178.692C375.272 178.523 376.383 178.271 377.408 178.018C378.604 177.765 380.142 177.513 381.082 178.102C384.927 180.545 389.285 182.398 392.702 185.43C393.215 185.936 393.727 186.441 394.24 186.947C394.326 187.031 394.496 187.199 394.582 187.284C397.316 190.4 400.306 193.348 403.211 196.381C404.066 197.307 405.006 198.234 406.116 198.824C410.218 200.929 414.404 202.951 418.591 204.888C420.3 205.646 422.179 206.236 423.888 206.91C425.768 207.668 427.306 208.847 427.562 210.869C427.733 212.048 428.075 213.059 428.587 213.817C429.186 214.744 429.955 215.417 430.98 215.839C432.005 216.344 433.201 216.512 434.568 216.597C435.508 217.018 436.79 217.523 438.071 217.439Z" fill="black"/>
<path d="M135.365 45.1468C135.365 47.4524 135.591 49.7579 135.742 52.0635C136.42 60.1702 139.359 66.9382 146.821 71.2518C150.589 73.483 153.453 76.6067 154.81 80.846C153.152 81.5154 151.418 82.1103 149.308 82.9284C145.389 79.4329 141.62 74.5243 135.214 77.8711C132.425 75.863 129.712 73.7805 126.697 71.6237C125.943 73.4087 125.265 75.0449 124.662 76.6067C120.065 77.9454 116.07 76.0117 111.925 75.0449C106.196 73.7061 100.544 72.3674 94.8156 71.2518C93.0067 70.88 90.7456 70.8056 89.1628 71.5493C82.6056 74.8218 76.4253 78.5404 74.1642 86.3496C70.3203 99.7368 68.1346 112.752 78.611 124.429C79.6662 125.544 80.2691 127.032 81.0982 128.296C86.3741 136.7 90.6702 145.848 99.1116 151.947C100.318 152.839 101.071 154.327 102.126 155.442C105.518 159.087 109.06 162.731 112.452 166.375C114.261 168.309 115.844 170.54 117.728 172.474C122.175 177.159 126.471 182.068 131.37 186.233C133.48 188.018 137.098 188.167 139.811 188.985C140.188 196.273 140.264 196.273 144.786 199.843C147.801 202.223 150.74 204.752 153.68 207.355C163.553 216.057 172.447 225.874 184.807 231.378C185.486 231.675 186.239 232.121 186.692 232.716C191.666 239.261 200.183 241.939 204.63 249.078C205.383 250.343 206.891 251.161 208.172 252.053C213.976 255.921 219.854 259.714 225.658 263.581C227.241 264.622 229.351 265.738 229.879 267.226C231.612 271.762 235.531 273.101 239.3 275.109C245.48 278.307 252.414 281.208 256.937 286.116C262.665 292.289 269.523 296.231 276.533 300.396C281.884 303.52 287.085 306.941 292.134 310.511C300.274 316.312 308.264 322.485 316.404 328.435C330.498 338.773 344.517 349.036 358.686 359.3C364.339 363.39 370.067 367.406 375.871 371.274C380.016 374.026 384.237 376.554 386.875 380.645C385.216 383.769 383.332 384.14 380.77 382.802C377.076 380.868 373.383 380.273 370.142 383.769C369.992 383.917 368.936 383.322 368.409 383.099C368.936 380.199 369.389 377.372 369.916 374.1C366.675 373.282 364.113 372.687 361.701 372.092C361.098 369.638 360.495 367.406 360.043 365.621C349.34 359.374 349.34 359.374 344.441 359.746C345.195 361.233 345.873 362.572 346.928 364.506C341.276 362.944 338.487 359.3 335.246 355.879C328.463 348.59 320.474 343.607 310.525 345.243C308.037 343.235 306.002 341.599 303.967 339.888C298.315 335.277 289.949 336.244 284.823 330.74C272.161 327.617 261.082 321.369 250.982 313.263C250.002 312.519 248.344 312.593 245.556 311.998C248.194 317.725 250.153 322.187 252.188 326.575C246.611 324.79 244.651 319.287 240.958 315.717C234.326 309.321 228.221 302.404 221.136 296.603C214.579 291.323 206.966 287.306 199.881 282.695C196.188 280.315 192.344 279.051 187.445 280.018C187.295 282.026 187.144 283.811 187.069 285.521C183.903 282.844 181.265 278.382 176.743 279.051C167.698 280.39 161.97 276.373 157.222 269.606C156.167 268.044 154.509 266.928 153.227 265.441C152.851 264.92 152.926 264.027 152.775 263.358C156.091 261.945 156.921 259.416 155.79 255.921C162.121 257.185 167.171 261.796 175.085 262.763C173.2 259.193 172.447 255.549 170.713 254.88C164.91 252.797 161.292 248.112 156.468 244.914C152.172 242.013 148.027 241.344 143.429 244.988C142.676 247.665 141.846 250.566 141.093 253.169C142.826 256.293 144.484 258.896 145.766 261.722C146.143 262.54 145.766 264.697 145.389 264.771C144.032 265.069 142.374 265.143 141.244 264.548C138.153 262.837 138.078 259.491 137.174 256.59C136.42 253.987 135.44 251.384 132.425 250.492C125.717 248.632 121.12 244.021 116.296 239.484C109.663 233.088 101.448 228.923 93.082 224.61L89.615 230.783C86.2234 220.519 76.9528 217.693 70.0942 212.412C64.969 208.471 58.7133 205.868 53.1359 202.446C47.257 198.728 42.5087 193.819 38.7402 187.274C43.3378 188.985 47.5585 190.026 51.1763 192.034C54.4926 193.819 57.5074 196.422 60.296 199.025C63.537 202.075 68.7375 200.066 71.677 204.083C73.4105 206.388 76.5006 207.801 79.1386 209.363C87.2785 213.974 95.3431 218.437 103.558 222.899C104.237 223.271 105.367 222.825 106.573 222.75C105.895 221.635 105.669 220.742 105.141 220.37C90.1426 212.041 76.3499 202.149 63.1601 191.29C61.4266 189.803 59.2409 188.762 57.2812 187.497C53.0605 184.746 48.8398 181.994 44.6191 179.316C37.4589 174.78 30.751 169.425 22.1588 167.193C20.1992 170.912 18.315 174.036 13.642 174.184C10.6272 174.259 9.19517 176.788 8.21536 179.465C5.80351 186.307 3.31632 193.15 0.979848 199.992C0.376887 201.777 0 203.636 0 205.496C0 209.661 0.15074 213.9 0.37685 218.065C0.979811 229.444 3.39169 240.079 12.2854 248.335C14.8479 250.715 17.0337 253.466 19.0687 256.218C33.389 275.704 52.3822 290.504 70.471 306.123C75.144 310.139 80.5706 313.188 83.8869 318.692C85.0175 320.626 86.7509 322.857 88.7106 323.601C95.4939 326.055 99.9407 331.707 105.97 335.054C109.437 336.988 112.075 339.442 114.562 342.491C118.256 346.805 122.552 351.119 127.375 354.019C135.741 359.077 143.354 364.952 150.891 371.051C156.318 375.364 161.82 379.901 168 382.95C173.653 385.702 178.702 388.975 183.903 392.47C186.993 394.553 190.008 397.007 193.098 399.313C193.174 398.941 193.174 398.569 193.174 398.123C193.324 397.453 193.475 396.784 193.701 395.891C194.229 395.073 194.455 394.255 194.229 393.214C194.153 392.693 194.605 392.247 195.208 392.173C195.51 392.173 195.811 392.173 196.188 392.247C196.791 392.321 197.394 392.173 197.771 391.726C198.449 391.131 199.278 390.834 199.806 390.09C200.258 389.421 200.861 388.826 201.464 388.157C201.012 386.892 201.464 385.702 201.69 384.438C203.273 384.14 203.273 384.14 203.198 382.504C203.198 382.207 203.273 381.835 203.424 381.686C203.951 381.091 204.479 380.57 205.082 379.975C205.082 379.752 205.007 379.455 205.082 379.157C205.157 378.86 205.233 378.562 205.383 378.339C206.212 377.447 207.117 376.48 208.021 375.662C208.323 375.364 208.7 375.141 209.077 375.067C209.906 374.918 210.358 374.398 210.659 373.728C210.735 373.505 210.81 373.431 210.885 373.282C209.981 371.943 208.775 370.828 206.514 370.381C202.218 369.563 197.243 367.258 194.681 363.985C190.686 358.705 185.26 357.738 179.758 356.176C179.456 350.375 177.195 346.21 171.241 343.83C167.774 342.417 164.533 339.814 161.97 336.988C156.694 331.335 150.665 329.179 143.128 331.335C142.525 331.484 141.696 330.815 140.49 330.368C133.254 316.386 119.16 309.47 104.915 301.586C107.704 301.363 109.437 301.214 111.698 300.991C110.945 299.504 110.719 298.239 109.965 297.644C105.744 294.149 101.071 291.694 95.4185 290.876C88.786 289.909 84.6406 286.191 79.7416 278.01C84.113 279.943 87.7308 282.621 91.5746 283.067C100.468 284.257 107.628 288.645 114.336 293.628C125.19 301.809 138.153 306.718 148.328 315.94C149.157 316.684 150.439 317.204 151.494 317.279C155.865 317.502 158.202 320.774 161.292 323.006C164.382 325.237 167.774 327.096 171.165 328.955C173.879 330.443 176.818 331.558 179.532 333.046C188.199 337.955 196.113 344.276 205.911 347.251C206.966 347.549 207.871 348.516 208.85 349.111C215.031 352.383 221.211 355.73 227.392 359.002C227.618 358.63 228.07 358.482 228.522 358.407C228.824 358.407 229.125 358.407 229.426 358.333C230.331 358.184 230.934 357.589 231.009 356.697C231.085 356.027 231.311 355.507 231.763 355.06C231.989 354.837 232.215 354.614 232.366 354.317C232.969 353.275 233.798 352.383 234.929 351.937C235.381 351.788 235.682 351.491 235.908 350.97C236.285 350.226 236.361 350.226 237.717 350.747C237.943 350.524 238.169 350.375 238.32 350.226C239.225 349.185 240.355 348.441 241.41 347.623C242.466 346.731 243.822 346.433 245.103 346.061C245.706 345.913 246.159 345.615 246.535 345.169C246.988 344.648 247.515 344.053 248.118 343.607C248.797 343.161 249.475 342.417 250.53 342.714C251.51 342.268 252.565 342.343 253.62 342.343C254.148 342.343 254.525 342.119 254.902 341.748C255.203 341.45 255.655 341.227 256.032 341.376C256.937 341.822 257.69 341.301 258.519 341.153C259.122 341.599 259.725 341.971 260.328 342.417C261.157 341.822 261.986 341.822 262.665 342.417C263.418 343.012 264.097 343.012 265.303 342.566C265.981 342.789 266.132 343.756 267.262 343.681C268.167 345.169 269.674 344.946 271.483 345.094C272.011 345.689 272.538 345.987 273.292 345.913L270.051 344.128C272.614 342.714 273.97 343.83 274.95 345.615C275.025 345.615 275.176 345.615 275.252 345.615C275.93 345.689 276.533 345.912 277.286 345.987C277.739 345.987 278.116 346.284 278.643 346.507C279.397 345.689 280.452 345.987 281.432 345.764C282.336 345.541 283.09 345.243 284.899 344.797C285.426 345.02 285.879 345.094 286.406 344.797C286.858 344.499 287.311 344.648 287.688 345.094C288.215 345.764 288.893 346.21 289.723 346.507C290.325 346.656 290.552 347.103 290.627 347.697C290.702 348.367 290.853 349.036 291.23 349.854C292.436 349.78 292.963 350.449 293.265 351.416C293.34 351.639 293.416 351.862 293.491 352.085C294.998 352.309 296.43 352.011 297.938 350.524C296.958 348.292 295.903 345.987 294.848 343.681C303.44 350.375 303.44 350.375 303.515 358.482C300.5 358.63 297.863 357.887 295.375 356.697C295.375 356.845 295.375 357.069 295.375 357.292C295.677 358.035 296.129 358.779 296.43 359.523C296.581 359.82 296.657 360.192 296.657 360.564C296.657 361.308 296.732 361.977 296.883 362.721C297.109 363.911 297.184 365.101 297.26 366.291C297.335 366.96 297.033 367.63 296.657 368.225C296.355 368.745 296.129 369.34 295.903 369.935C295.601 370.753 295.3 371.571 295.074 372.464C294.848 373.282 294.772 374.1 294.546 374.918C294.094 376.852 293.717 378.786 292.737 380.496C292.21 381.389 291.833 382.207 291.607 383.248C291.531 383.769 291.23 384.215 290.928 384.661C290.099 385.777 289.647 387.041 289.421 388.38C289.421 388.528 289.346 388.752 289.27 388.9C293.19 390.908 297.033 393.14 300.727 395.743C302.611 397.081 304.947 397.751 307.058 398.718C311.957 400.949 316.78 403.18 322.056 405.634C323.941 404.296 326.428 402.957 329.744 404.965C340.447 411.212 353.033 413.369 363.661 419.988C366.525 421.773 370.142 422.591 373.534 423.484C381.448 425.566 389.362 427.426 397.351 429.359C406.169 431.516 415.063 432.037 423.957 429.954C427.122 429.211 429.986 427.946 431.644 425.12C437.523 415.08 438.428 404.221 432.926 394.33C426.067 381.909 418.078 369.935 405.34 362.126C402.702 360.49 400.064 358.853 397.652 356.994C394.864 354.912 391.246 353.052 389.814 350.226C385.292 341.301 377.604 337.955 367.806 336.765C368.107 328.509 363.208 325.832 355.822 325.906C355.747 321.816 353.787 319.138 349.792 318.617C343.009 317.651 337.281 314.676 332.005 310.511C330.196 309.098 327.86 308.428 325.825 307.238C325.222 306.941 324.92 306.123 324.468 305.528C325.297 304.412 326.051 303.222 327.031 301.809C323.262 298.462 318.815 297.049 314.519 295.264C310.977 293.777 307.284 292.438 303.967 290.504C296.28 286.042 288.743 281.208 281.206 276.448C279.095 275.109 276.91 273.919 274.724 272.58C274.649 272.729 274.573 272.878 274.573 272.952C274.422 273.399 274.196 273.696 273.518 273.622C273.066 273.994 272.915 274.514 271.709 275.927C271.709 276.671 271.106 277.117 270.503 278.084C269.976 278.158 269.674 278.53 269.448 279.051C269.297 279.348 269.147 279.72 268.92 280.315C269.071 280.836 268.77 281.282 268.544 281.654C268.242 282.249 267.865 282.844 266.735 283.29C266.358 283.588 265.981 283.662 265.152 283.29C264.7 283.439 264.247 283.365 263.268 283.736C262.966 283.588 262.665 283.513 262.062 283.811C261.61 283.662 261.233 283.736 260.78 283.811C260.253 283.885 259.801 283.736 258.519 283.662C257.916 283.439 257.313 283.216 256.334 282.546C255.655 282.398 255.128 282.1 254.525 281.803C254.223 281.654 253.846 281.654 253.545 281.58C253.093 281.58 252.565 281.431 252.113 281.282C251.811 281.208 251.585 280.985 251.058 280.166C250.907 279.869 250.756 279.646 250.379 279.497C249.927 279.348 249.626 278.977 249.249 277.935C248.797 277.266 248.269 276.597 247.817 276.002C247.365 275.407 247.063 274.737 246.912 273.77C247.214 273.175 246.837 272.729 246.686 272.209C246.536 271.688 246.385 271.167 246.535 270.572C246.611 270.2 246.385 269.977 246.535 269.01C246.611 268.713 246.686 268.49 246.611 268.118C246.536 267.746 246.611 267.3 246.762 266.184C246.611 265.887 246.385 265.589 246.234 265.292C246.234 264.771 246.234 264.176 246.611 263.135C246.611 262.317 246.912 261.573 247.515 261.053C247.365 260.458 247.515 259.863 247.666 258.226C247.591 257.854 247.365 257.557 247.063 257.334C246.762 257.111 246.611 256.813 246.611 256.367C246.611 256.07 246.46 255.772 246.46 255.475C246.385 255.177 246.385 254.805 246.385 254.508C246.46 253.838 246.686 253.169 246.837 252.5C246.912 252.351 246.912 252.128 246.988 251.979C243.219 249.153 239.375 247.07 234.778 247.888C230.557 238.517 227.542 236.137 218.573 235.171C215.106 234.799 211.112 234.65 209.453 231.08C206.514 224.758 200.56 221.486 195.811 217.098C190.988 212.561 184.204 210.404 179.532 206.239C171.165 198.728 160.689 193.819 153.906 184.597C153.303 183.704 152.248 182.886 151.192 182.514C143.806 179.911 139.359 174.185 134.912 168.309C133.104 165.929 130.842 163.326 128.129 162.136C122.401 159.533 118.934 155.294 116.145 150.013C114.864 147.708 112.904 145.774 111.322 143.617C104.161 134.469 97.0013 125.396 89.9919 116.173C88.3337 114.091 86.6002 111.785 88.9367 108.439C93.3835 107.918 97.755 109.554 102.051 111.19C107.101 113.124 112.226 115.058 117.125 117.438C124.436 121.008 131.822 124.578 138.756 128.891C156.544 139.898 173.351 152.467 191.591 162.805C193.927 164.144 195.962 166.078 198.148 167.64C201.012 169.648 203.801 171.73 206.74 173.59C212.016 176.862 217.292 180.134 222.719 183.184C228.371 186.456 233.949 190.175 240.054 192.629C247.063 195.381 253.394 198.728 258.595 204.157C260.931 206.611 264.021 209.289 267.187 209.884C273.669 211.074 278.492 214.941 283.844 217.99C288.215 220.519 292.285 223.643 296.807 225.8C310.148 232.121 323.413 238.443 335.924 246.401C337.206 247.219 338.713 247.665 340.22 248.186C350.395 251.979 360.646 255.698 370.745 259.565C372.931 260.383 374.891 261.648 376.926 262.763C379.338 264.027 381.523 265.664 384.01 266.705C394.788 271.167 405.943 274.812 416.344 280.018C427.198 285.447 437.297 283.588 447.623 280.613C448.452 276.299 448.527 272.283 450.035 268.936C451.919 264.92 451.09 261.573 449.658 257.854C447.623 252.5 445.739 247.07 443.553 241.046C436.77 235.245 429.609 228.775 422.148 222.75C417.625 219.106 412.651 216.131 407.827 212.933C404.888 210.999 401.496 209.661 398.934 207.429C391.095 200.513 382.955 194.117 372.63 190.993C370.142 190.249 367.58 188.687 365.771 186.754C362.153 182.961 357.556 181.101 353.109 178.721C347.984 175.969 342.858 173.218 337.884 170.168C327.784 163.847 317.986 157.079 307.736 150.906C292.361 141.758 275.402 135.808 259.876 127.181C255.505 124.726 251.208 122.123 247.063 119.223C238.546 113.198 230.256 107.025 219.628 104.497C213.297 103.009 207.494 99.4393 202.519 94.9025C199.655 92.3739 196.414 90.2914 193.249 87.9858C182.622 80.3254 170.789 74.1524 162.498 63.5914C161.97 62.922 161.97 61.732 161.669 60.3933C163.478 60.6908 164.684 60.5421 165.663 60.9883C184.355 70.5825 203.047 80.1023 220.457 91.8532C222.719 93.3407 224.754 95.4232 227.241 96.3156C235.758 99.3649 242.993 104.645 250.681 109.108C256.032 112.232 261.233 115.876 266.961 118.107C273.292 120.636 278.417 124.503 283.693 128.519C289.27 132.684 294.622 137.072 300.35 141.088C302.46 142.576 305.249 143.989 307.736 144.063C313.238 144.361 317.233 147.261 321.227 150.385C324.544 152.988 327.634 156.261 331.402 158.046C342.934 163.624 353.862 170.168 364.716 176.936C380.543 186.679 397.276 195.158 413.631 204.083C419.887 207.504 426.745 209.066 433.755 209.958C437.674 210.479 439.935 209.586 441.518 207.132C441.292 207.058 441.141 206.983 440.915 206.834C438.428 204.454 435.187 203.711 432.775 201.703C431.871 200.959 430.891 200.29 429.911 199.546C429.233 199.025 428.63 198.356 427.876 197.91C423.278 195.232 419.359 191.662 415.364 188.241C413.179 186.456 410.993 184.746 408.958 182.812C404.586 178.498 399.311 175.3 394.638 171.284C392.377 169.276 390.342 167.119 388.307 164.888C384.613 160.797 381.146 156.632 377.906 152.244C376.097 149.716 374.288 147.187 372.931 144.361C372.479 143.394 372.253 142.427 372.554 141.312C373.082 139.155 373.308 136.849 373.76 134.692C368.409 129.486 363.058 124.206 357.405 118.628C352.883 120.784 348.511 120.487 344.743 116.843C343.914 116.099 342.708 115.504 341.653 115.281C335.774 114.24 332.231 110.149 328.538 106.133C326.202 103.604 323.941 100.927 321.679 98.4725C319.192 98.1006 316.931 97.8031 314.444 97.4312C310.902 90.5889 305.475 86.1265 298.239 83.2259C293.642 81.3666 289.496 78.2429 285.276 75.4167C283.391 74.1524 281.733 72.4418 280.377 70.5825C278.869 68.5 278.719 66.2688 281.809 65.1532C282.562 65.302 283.467 65.302 284.07 65.6738C288.818 68.9463 293.943 71.6237 298.39 75.4911C302.686 79.1354 308.64 80.846 312.635 85.234C313.389 86.0521 314.444 86.7215 315.424 87.3165C317.157 88.2833 319.117 89.1014 320.7 87.2421C322.207 85.4571 321.604 83.5234 319.871 82.2591C317.685 80.6229 315.348 79.2098 313.012 77.8711C302.234 71.6981 291.381 65.5995 280.603 59.3521C279.02 58.3853 276.985 57.5671 277.362 54.4435C278.417 54.0716 279.924 52.956 281.055 53.1791C289.421 54.9641 298.164 56.0053 305.927 59.2034C321.001 65.3763 335.623 72.6649 350.32 79.8048C361.098 85.0853 371.725 90.5145 382.428 95.9438C382.955 95.0513 383.558 94.1588 384.086 93.2663C385.593 90.7376 387.704 88.7296 390.191 87.1677C391.472 86.3496 392.678 85.4571 393.884 84.5647C396.07 82.8541 398.406 81.441 400.818 80.251C400.366 79.4329 399.914 78.6148 399.461 77.7967C392.527 64.9301 380.091 58.0134 368.258 50.7992C362.455 47.2293 355.068 46.1136 348.737 43.1387C340.823 39.42 331.93 39.7919 323.941 36.7426C310.525 31.6852 296.506 31.834 282.487 32.6521C276.081 33.0239 270.428 33.9164 266.433 40.0894C263.644 44.3287 258.67 44.8493 253.846 42.5437C250.379 40.8331 246.912 38.9738 243.445 37.3376C242.164 36.7426 240.506 35.9245 239.752 38.1557C240.204 38.8251 240.431 39.6432 241.033 40.0894C243.219 41.6512 245.405 43.5106 247.817 44.4774C255.806 47.6011 258.595 54.5178 262.589 62.8476C254.6 60.0958 249.626 55.3359 243.521 50.4273C242.842 53.4022 242.39 55.1872 242.013 56.8978C241.561 58.8315 240.883 61.137 238.622 60.9139C237.039 60.7652 235.531 59.129 234.25 57.8646C233.195 56.8234 232.441 55.4847 231.537 54.2947C235.079 51.4685 235.456 49.1629 232.215 47.6011C226.261 44.7006 220.91 40.9819 215.634 36.9657C213.9 35.5526 211.413 34.9577 209.227 34.3627C207.795 33.9908 206.137 33.9908 205.911 35.9989C207.192 40.3125 215.182 38.8251 214.352 45.8162C208.926 45.1468 205.383 42.0975 201.464 39.8663C187.445 31.7596 172.371 27.1485 156.167 26.1816C143.731 25.2891 135.289 33.0983 135.365 45.1468ZM63.3109 220.668C64.2907 220.519 64.5922 221.114 64.8937 221.709C64.3661 221.412 63.7631 221.114 63.3109 220.668ZM179.532 355.953C178.853 356.027 178.25 356.102 177.572 356.102C178.401 355.284 179.004 355.655 179.532 355.953ZM188.953 288.496C188.199 287.827 187.596 286.86 187.069 285.968C188.124 286.116 189.179 286.191 190.159 286.563C190.611 286.711 190.686 287.678 190.988 288.273C190.234 288.422 189.33 288.794 188.953 288.496ZM205.685 297.496C206.363 296.529 207.192 296.38 207.494 296.677C208.172 297.495 208.549 298.537 209.001 299.504C207.042 299.28 206.288 298.388 205.685 297.496ZM257.389 332.228C257.087 332.153 256.861 331.707 256.937 331.41C257.087 330.963 257.54 330.74 257.916 330.889C258.218 331.038 258.369 331.261 258.293 331.633C258.293 332.005 257.766 332.302 257.389 332.228ZM259.122 338.55C259.273 338.55 259.348 338.698 259.65 338.996C259.122 338.996 258.896 339.07 259.122 338.55ZM259.499 336.17C259.499 335.872 259.876 335.649 260.027 335.798C260.177 335.872 260.328 336.095 259.499 336.17ZM335.02 380.422C333.588 375.662 330.648 372.613 326.579 370.009C324.77 368.894 323.639 366.588 322.358 364.803C320.398 362.126 318.589 359.374 315.575 355.06C322.056 355.73 326.051 359.151 330.046 361.605C334.116 364.134 334.794 370.233 339.391 372.91C339.844 376.48 340.296 379.975 340.748 383.471C337.507 384.215 335.623 382.504 335.02 380.422ZM135.139 78.5404C135.214 79.2841 135.365 80.1023 135.44 80.846C134.912 79.5816 134.988 79.061 135.139 78.5404ZM374.514 231.378C369.69 233.981 367.203 232.344 365.243 225.13C369.389 226.171 371.951 228.626 374.514 231.378ZM303.967 193.968C299.068 192.927 296.657 191.216 294.094 190.1C293.566 189.877 293.491 188.91 292.888 187.497C297.335 187.423 299.898 189.729 303.967 193.968ZM192.872 112.975C193.626 113.719 194.304 114.463 194.832 115.355C193.249 115.801 192.571 114.983 191.968 114.091C192.872 112.975 192.872 112.975 192.872 112.975ZM272.463 61.4346C272.463 61.2114 274.121 60.9139 274.196 61.0627C274.573 61.9552 274.724 62.922 274.95 63.8145C274.347 63.9633 273.669 64.112 272.689 64.3351C272.614 63.2939 272.387 62.327 272.463 61.4346ZM270.277 72.0699C270.88 72.4418 271.709 72.5906 272.011 73.1112C272.312 73.5574 272.011 74.3755 271.935 74.9705C271.332 74.673 270.428 74.5243 270.126 74.0036C269.9 73.6318 270.202 72.8137 270.277 72.0699ZM157.674 84.5647C155.79 83.8953 155.413 82.5566 155.036 81.2179L157.674 84.5647Z" fill="#183486"/>
<path d="M265.235 147.069C265.235 149.374 265.461 151.68 265.612 153.986C266.29 162.092 269.23 168.86 276.692 173.174C280.46 175.405 283.324 178.529 284.681 182.768C283.023 183.437 281.289 184.032 279.179 184.85C275.259 181.355 271.491 176.446 265.085 179.793C262.296 177.785 259.583 175.703 256.568 173.546C255.814 175.331 255.136 176.967 254.533 178.529C249.935 179.867 245.941 177.934 241.795 176.967C236.067 175.628 230.414 174.289 224.686 173.174C222.877 172.802 220.616 172.728 219.033 173.471C212.476 176.744 206.296 180.462 204.035 188.272C200.191 201.659 198.005 214.674 208.482 226.351C209.537 227.466 210.14 228.954 210.969 230.218C216.245 238.622 220.541 247.77 228.982 253.869C230.188 254.761 230.942 256.249 231.997 257.364C235.389 261.009 238.931 264.653 242.323 268.297C244.132 270.231 245.714 272.462 247.599 274.396C252.045 279.081 256.342 283.99 261.241 288.155C263.351 289.94 266.969 290.089 269.682 290.907C270.059 298.195 270.134 298.195 274.656 301.765C277.671 304.145 280.611 306.674 283.55 309.277C293.424 317.979 302.317 327.796 314.678 333.3C315.356 333.597 316.11 334.043 316.562 334.638C321.537 341.183 330.053 343.861 334.5 351C335.254 352.265 336.761 353.083 338.043 353.975C343.846 357.843 349.725 361.636 355.529 365.503C357.111 366.544 359.222 367.66 359.749 369.148C361.483 373.684 365.402 375.023 369.171 377.031C375.351 380.229 382.285 383.13 386.807 388.038C392.535 394.211 399.394 398.153 406.403 402.318C411.755 405.442 416.955 408.863 422.005 412.433C430.145 418.234 438.134 424.407 446.274 430.357C460.368 440.695 474.387 450.958 488.557 461.222C494.21 465.312 499.938 469.328 505.741 473.196C509.887 475.948 514.107 478.476 516.745 482.567C515.087 485.691 513.203 486.062 510.64 484.724C506.947 482.79 503.254 482.195 500.013 485.691C499.862 485.839 498.807 485.244 498.28 485.021C498.807 482.121 499.259 479.294 499.787 476.022C496.546 475.204 493.983 474.609 491.572 474.014C490.969 471.56 490.366 469.328 489.913 467.543C479.211 461.296 479.211 461.296 474.312 461.668C475.065 463.155 475.744 464.494 476.799 466.428C471.146 464.866 468.358 461.222 465.117 457.801C458.333 450.512 450.344 445.529 440.395 447.165C437.908 445.157 435.873 443.521 433.838 441.81C428.185 437.199 419.819 438.166 414.694 432.662C402.032 429.539 390.952 423.291 380.853 415.185C379.873 414.441 378.215 414.515 375.426 413.92C378.064 419.647 380.024 424.109 382.059 428.497C376.481 426.713 374.522 421.209 370.829 417.639C364.196 411.243 358.091 404.326 351.006 398.525C344.449 393.245 336.837 389.228 329.752 384.617C326.059 382.237 322.215 380.973 317.316 381.94C317.165 383.948 317.015 385.733 316.939 387.443C313.774 384.766 311.136 380.304 306.613 380.973C297.569 382.312 291.841 378.296 287.093 371.528C286.037 369.966 284.379 368.85 283.098 367.363C282.721 366.842 282.797 365.95 282.646 365.28C285.962 363.867 286.791 361.338 285.661 357.843C291.992 359.107 297.041 363.718 304.955 364.685C303.071 361.115 302.317 357.471 300.584 356.802C294.78 354.719 291.163 350.034 286.339 346.836C282.043 343.935 277.897 343.266 273.3 346.91C272.546 349.587 271.717 352.488 270.963 355.091C272.697 358.215 274.355 360.818 275.636 363.644C276.013 364.462 275.636 366.619 275.259 366.693C273.903 366.991 272.245 367.065 271.114 366.47C268.024 364.76 267.949 361.413 267.044 358.512C266.29 355.909 265.311 353.306 262.296 352.414C255.588 350.554 250.99 345.943 246.167 341.406C239.534 335.01 231.319 330.845 222.953 326.532L219.486 332.705C216.094 322.441 206.823 319.615 199.965 314.334C194.84 310.393 188.584 307.79 183.006 304.368C177.128 300.65 172.379 295.741 168.611 289.196C173.208 290.907 177.429 291.948 181.047 293.956C184.363 295.741 187.378 298.344 190.167 300.947C193.408 303.997 198.608 301.988 201.548 306.005C203.281 308.31 206.371 309.723 209.009 311.285C217.149 315.896 225.214 320.359 233.429 324.821C234.107 325.193 235.238 324.747 236.444 324.672C235.766 323.557 235.539 322.664 235.012 322.292C220.013 313.963 206.221 304.071 193.031 293.212C191.297 291.725 189.111 290.684 187.152 289.419C182.931 286.668 178.71 283.916 174.49 281.238C167.33 276.702 160.622 271.347 152.029 269.115C150.07 272.834 148.186 275.958 143.513 276.107C140.498 276.181 139.066 278.71 138.086 281.387C135.674 288.229 133.187 295.072 130.85 301.914C130.247 303.699 129.871 305.558 129.871 307.418C129.871 311.583 130.021 315.822 130.247 319.987C130.85 331.366 133.262 342.001 142.156 350.257C144.719 352.637 146.904 355.389 148.939 358.14C163.26 377.626 182.253 392.426 200.342 408.045C205.015 412.061 210.441 415.11 213.758 420.614C214.888 422.548 216.622 424.779 218.581 425.523C225.364 427.977 229.811 433.629 235.841 436.976C239.308 438.91 241.946 441.364 244.433 444.413C248.126 448.727 252.422 453.041 257.246 455.941C265.612 460.999 273.225 466.874 280.762 472.973C286.188 477.286 291.69 481.823 297.87 484.872C303.523 487.624 308.573 490.897 313.774 494.392C316.864 496.475 319.879 498.929 322.969 501.235C323.044 500.863 323.044 500.491 323.044 500.045C323.195 499.375 323.346 498.706 323.572 497.813C324.099 496.995 324.325 496.177 324.099 495.136C324.024 494.615 324.476 494.169 325.079 494.095C325.381 494.095 325.682 494.095 326.059 494.169C326.662 494.243 327.265 494.095 327.642 493.648C328.32 493.054 329.149 492.756 329.677 492.012C330.129 491.343 330.732 490.748 331.335 490.079C330.883 488.814 331.335 487.624 331.561 486.36C333.144 486.062 333.144 486.062 333.068 484.426C333.068 484.129 333.144 483.757 333.294 483.608C333.822 483.013 334.35 482.493 334.953 481.898C334.953 481.674 334.877 481.377 334.953 481.079C335.028 480.782 335.103 480.484 335.254 480.261C336.083 479.369 336.988 478.402 337.892 477.584C338.193 477.286 338.57 477.063 338.947 476.989C339.776 476.84 340.228 476.32 340.53 475.65C340.605 475.427 340.681 475.353 340.756 475.204C339.852 473.865 338.646 472.75 336.385 472.303C332.088 471.485 327.114 469.18 324.552 465.907C320.557 460.627 315.13 459.66 309.628 458.098C309.327 452.297 307.066 448.132 301.111 445.752C297.644 444.339 294.403 441.736 291.841 438.91C286.565 433.257 280.535 431.101 272.998 433.257C272.395 433.406 271.566 432.737 270.36 432.291C263.125 418.308 249.031 411.392 234.786 403.508C237.574 403.285 239.308 403.136 241.569 402.913C240.815 401.426 240.589 400.161 239.836 399.566C235.615 396.071 230.942 393.616 225.289 392.798C218.657 391.831 214.511 388.113 209.612 379.932C213.984 381.865 217.601 384.543 221.445 384.989C230.339 386.179 237.499 390.567 244.207 395.55C255.06 403.731 268.024 408.64 278.199 417.862C279.028 418.606 280.309 419.126 281.364 419.201C285.736 419.424 288.072 422.696 291.163 424.928C294.253 427.159 297.644 429.018 301.036 430.877C303.749 432.365 306.689 433.481 309.402 434.968C318.07 439.877 325.984 446.198 335.782 449.173C336.837 449.471 337.741 450.438 338.721 451.033C344.901 454.305 351.082 457.652 357.262 460.924C357.488 460.552 357.94 460.404 358.393 460.329C358.694 460.329 358.996 460.329 359.297 460.255C360.202 460.106 360.804 459.511 360.88 458.619C360.955 457.949 361.181 457.429 361.634 456.982C361.86 456.759 362.086 456.536 362.237 456.239C362.84 455.197 363.669 454.305 364.799 453.859C365.251 453.71 365.553 453.413 365.779 452.892C366.156 452.148 366.231 452.148 367.588 452.669C367.814 452.446 368.04 452.297 368.191 452.148C369.095 451.107 370.226 450.363 371.281 449.545C372.336 448.653 373.693 448.355 374.974 447.983C375.577 447.835 376.029 447.537 376.406 447.091C376.858 446.57 377.386 445.975 377.989 445.529C378.667 445.083 379.346 444.339 380.401 444.636C381.381 444.19 382.436 444.265 383.491 444.265C384.018 444.265 384.395 444.042 384.772 443.67C385.074 443.372 385.526 443.149 385.903 443.298C386.807 443.744 387.561 443.223 388.39 443.075C388.993 443.521 389.596 443.893 390.199 444.339C391.028 443.744 391.857 443.744 392.535 444.339C393.289 444.934 393.967 444.934 395.173 444.488C395.852 444.711 396.002 445.678 397.133 445.603C398.037 447.091 399.545 446.868 401.354 447.016C401.881 447.611 402.409 447.909 403.162 447.835L399.922 446.05C402.484 444.636 403.841 445.752 404.821 447.537C404.896 447.537 405.047 447.537 405.122 447.537C405.8 447.611 406.403 447.835 407.157 447.909C407.609 447.909 407.986 448.206 408.514 448.43C409.267 447.611 410.323 447.909 411.302 447.686C412.207 447.463 412.961 447.165 414.769 446.719C415.297 446.942 415.749 447.016 416.277 446.719C416.729 446.421 417.181 446.57 417.558 447.016C418.086 447.686 418.764 448.132 419.593 448.43C420.196 448.578 420.422 449.025 420.498 449.62C420.573 450.289 420.724 450.958 421.101 451.776C422.306 451.702 422.834 452.371 423.135 453.338C423.211 453.561 423.286 453.784 423.362 454.008C424.869 454.231 426.301 453.933 427.808 452.446C426.829 450.214 425.774 447.909 424.718 445.603C433.311 452.297 433.311 452.297 433.386 460.404C430.371 460.552 427.733 459.809 425.246 458.619C425.246 458.767 425.246 458.991 425.246 459.214C425.547 459.957 426 460.701 426.301 461.445C426.452 461.742 426.527 462.114 426.527 462.486C426.527 463.23 426.603 463.899 426.753 464.643C426.979 465.833 427.055 467.023 427.13 468.213C427.206 468.882 426.904 469.552 426.527 470.147C426.226 470.667 426 471.262 425.773 471.857C425.472 472.675 425.171 473.493 424.944 474.386C424.718 475.204 424.643 476.022 424.417 476.84C423.965 478.774 423.588 480.708 422.608 482.418C422.08 483.311 421.704 484.129 421.477 485.17C421.402 485.691 421.101 486.137 420.799 486.583C419.97 487.699 419.518 488.963 419.292 490.302C419.292 490.45 419.216 490.674 419.141 490.822C423.06 492.83 426.904 495.062 430.597 497.665C432.481 499.003 434.818 499.673 436.928 500.64C441.827 502.871 446.651 505.102 451.927 507.556C453.811 506.218 456.298 504.879 459.615 506.887C470.317 513.134 482.904 515.291 493.531 521.91C496.395 523.695 500.013 524.513 503.405 525.406C511.318 527.488 519.232 529.348 527.222 531.281C536.04 533.438 544.934 533.959 553.827 531.876C556.993 531.133 559.857 529.868 561.515 527.042C567.394 517.002 568.298 506.143 562.796 496.252C555.938 483.831 547.948 471.857 535.211 464.048C532.573 462.412 529.935 460.776 527.523 458.916C524.734 456.834 521.117 454.974 519.685 452.148C515.162 443.223 507.475 439.877 497.677 438.687C497.978 430.431 493.079 427.754 485.693 427.828C485.617 423.738 483.658 421.06 479.663 420.54C472.88 419.573 467.152 416.598 461.876 412.433C460.067 411.02 457.73 410.35 455.695 409.16C455.092 408.863 454.791 408.045 454.339 407.45C455.168 406.334 455.922 405.144 456.901 403.731C453.133 400.384 448.686 398.971 444.39 397.186C440.848 395.699 437.154 394.36 433.838 392.426C426.15 387.964 418.613 383.13 411.076 378.37C408.966 377.031 406.78 375.841 404.594 374.502C404.519 374.651 404.444 374.8 404.444 374.874C404.293 375.321 404.067 375.618 403.389 375.544C402.936 375.916 402.786 376.436 401.58 377.849C401.58 378.593 400.977 379.039 400.374 380.006C399.846 380.08 399.545 380.452 399.319 380.973C399.168 381.27 399.017 381.642 398.791 382.237C398.942 382.758 398.64 383.204 398.414 383.576C398.113 384.171 397.736 384.766 396.605 385.212C396.228 385.51 395.852 385.584 395.023 385.212C394.57 385.361 394.118 385.287 393.138 385.658C392.837 385.51 392.535 385.435 391.932 385.733C391.48 385.584 391.103 385.658 390.651 385.733C390.123 385.807 389.671 385.658 388.39 385.584C387.787 385.361 387.184 385.138 386.204 384.468C385.526 384.32 384.998 384.022 384.395 383.725C384.094 383.576 383.717 383.576 383.416 383.502C382.963 383.502 382.436 383.353 381.983 383.204C381.682 383.13 381.456 382.907 380.928 382.089C380.778 381.791 380.627 381.568 380.25 381.419C379.798 381.27 379.496 380.899 379.119 379.857C378.667 379.188 378.14 378.519 377.687 377.924C377.235 377.329 376.934 376.659 376.783 375.692C377.084 375.097 376.708 374.651 376.557 374.131C376.406 373.61 376.255 373.089 376.406 372.494C376.481 372.123 376.255 371.899 376.406 370.933C376.481 370.635 376.557 370.412 376.482 370.04C376.406 369.668 376.481 369.222 376.632 368.106C376.481 367.809 376.255 367.511 376.105 367.214C376.105 366.693 376.105 366.098 376.482 365.057C376.482 364.239 376.783 363.495 377.386 362.975C377.235 362.38 377.386 361.785 377.537 360.148C377.461 359.777 377.235 359.479 376.934 359.256C376.632 359.033 376.482 358.735 376.482 358.289C376.482 357.992 376.331 357.694 376.331 357.397C376.255 357.099 376.255 356.727 376.255 356.43C376.331 355.76 376.557 355.091 376.708 354.422C376.783 354.273 376.783 354.05 376.858 353.901C373.09 351.075 369.246 348.992 364.648 349.811C360.428 340.439 357.413 338.06 348.444 337.093C344.977 336.721 340.982 336.572 339.324 333.002C336.385 326.68 330.43 323.408 325.682 319.02C320.858 314.483 314.075 312.326 309.402 308.161C301.036 300.65 290.56 295.741 283.776 286.519C283.173 285.626 282.118 284.808 281.063 284.436C273.677 281.833 269.23 276.107 264.783 270.231C262.974 267.851 260.713 265.248 258 264.058C252.272 261.455 248.805 257.216 246.016 251.935C244.735 249.63 242.775 247.696 241.192 245.539C234.032 236.391 226.872 227.318 219.862 218.095C218.204 216.013 216.471 213.707 218.807 210.361C223.254 209.84 227.626 211.476 231.922 213.112C236.971 215.046 242.097 216.98 246.996 219.36C254.307 222.93 261.693 226.5 268.627 230.813C286.414 241.82 303.222 254.39 321.461 264.727C323.798 266.066 325.833 268 328.019 269.562C330.883 271.57 333.671 273.652 336.611 275.512C341.887 278.784 347.162 282.056 352.589 285.106C358.242 288.378 363.819 292.097 369.924 294.551C376.934 297.303 383.265 300.65 388.465 306.079C390.802 308.533 393.892 311.211 397.057 311.806C403.539 312.996 408.363 316.863 413.714 319.912C418.086 322.441 422.156 325.565 426.678 327.722C440.018 334.043 453.284 340.365 465.795 348.323C467.076 349.141 468.584 349.587 470.091 350.108C480.266 353.901 490.516 357.62 500.616 361.487C502.802 362.305 504.761 363.57 506.796 364.685C509.208 365.95 511.394 367.586 513.881 368.627C524.659 373.089 535.814 376.734 546.215 381.94C557.068 387.369 567.168 385.51 577.493 382.535C578.322 378.221 578.398 374.205 579.905 370.858C581.789 366.842 580.96 363.495 579.528 359.777C577.493 354.422 575.609 348.992 573.423 342.968C566.64 337.167 559.48 330.697 552.018 324.672C547.496 321.028 542.522 318.053 537.698 314.855C534.759 312.921 531.367 311.583 528.804 309.351C520.966 302.435 512.826 296.039 502.5 292.915C500.013 292.171 497.45 290.609 495.642 288.676C492.024 284.883 487.426 283.023 482.979 280.643C477.854 277.892 472.729 275.14 467.755 272.09C457.655 265.769 447.857 259.001 437.607 252.828C422.231 243.68 405.273 237.73 389.747 229.103C385.375 226.648 381.079 224.045 376.934 221.145C368.417 215.12 360.126 208.947 349.499 206.419C343.168 204.931 337.364 201.361 332.39 196.825C329.526 194.296 326.285 192.213 323.119 189.908C312.492 182.247 300.659 176.074 292.368 165.513C291.841 164.844 291.841 163.654 291.539 162.315C293.348 162.613 294.554 162.464 295.534 162.91C314.226 172.504 332.918 182.024 350.328 193.775C352.589 195.263 354.624 197.345 357.111 198.238C365.628 201.287 372.864 206.567 380.551 211.03C385.903 214.154 391.103 217.798 396.831 220.029C403.163 222.558 408.288 226.425 413.564 230.441C419.141 234.606 424.492 238.994 430.22 243.01C432.331 244.498 435.119 245.911 437.607 245.985C443.109 246.283 447.103 249.183 451.098 252.307C454.414 254.91 457.504 258.183 461.273 259.968C472.804 265.546 483.733 272.09 494.586 278.858C510.414 288.601 527.146 297.08 543.502 306.005C549.757 309.426 556.616 310.988 563.625 311.88C567.545 312.401 569.806 311.508 571.388 309.054C571.162 308.98 571.012 308.905 570.785 308.756C568.298 306.376 565.057 305.633 562.646 303.625C561.741 302.881 560.761 302.212 559.781 301.468C559.103 300.947 558.5 300.278 557.746 299.832C553.149 297.154 549.23 293.584 545.235 290.163C543.049 288.378 540.864 286.668 538.829 284.734C534.457 280.42 529.181 277.222 524.508 273.206C522.247 271.198 520.212 269.041 518.177 266.81C514.484 262.719 511.017 258.554 507.776 254.166C505.967 251.638 504.158 249.109 502.802 246.283C502.349 245.316 502.123 244.349 502.425 243.234C502.952 241.077 503.179 238.771 503.631 236.614C498.279 231.408 492.928 226.128 487.275 220.55C482.753 222.706 478.382 222.409 474.613 218.765C473.784 218.021 472.578 217.426 471.523 217.203C465.644 216.162 462.102 212.071 458.409 208.055C456.072 205.526 453.811 202.849 451.55 200.394C449.063 200.023 446.802 199.725 444.315 199.353C440.772 192.511 435.346 188.049 428.11 185.148C423.512 183.289 419.367 180.165 415.146 177.339C413.262 176.074 411.604 174.364 410.247 172.504C408.74 170.422 408.589 168.191 411.679 167.075C412.433 167.224 413.337 167.224 413.94 167.596C418.689 170.868 423.814 173.546 428.261 177.413C432.557 181.057 438.511 182.768 442.506 187.156C443.259 187.974 444.315 188.643 445.294 189.238C447.028 190.205 448.987 191.023 450.57 189.164C452.078 187.379 451.475 185.445 449.741 184.181C447.555 182.545 445.219 181.132 442.883 179.793C432.105 173.62 421.251 167.521 410.473 161.274C408.891 160.307 406.856 159.489 407.232 156.365C408.288 155.994 409.795 154.878 410.926 155.101C419.292 156.886 428.035 157.927 435.798 161.125C450.872 167.298 465.494 174.587 480.191 181.727C490.969 187.007 501.596 192.437 512.298 197.866C512.826 196.973 513.429 196.081 513.956 195.188C515.464 192.66 517.574 190.652 520.061 189.09C521.343 188.272 522.549 187.379 523.755 186.487C525.94 184.776 528.277 183.363 530.689 182.173C530.236 181.355 529.784 180.537 529.332 179.719C522.398 166.852 509.962 159.935 498.129 152.721C492.325 149.151 484.939 148.036 478.608 145.061C470.694 141.342 461.8 141.714 453.811 138.665C440.395 133.607 426.376 133.756 412.358 134.574C405.951 134.946 400.298 135.838 396.304 142.011C393.515 146.251 388.541 146.771 383.717 144.466C380.25 142.755 376.783 140.896 373.316 139.26C372.035 138.665 370.376 137.847 369.623 140.078C370.075 140.747 370.301 141.565 370.904 142.011C373.09 143.573 375.276 145.433 377.687 146.399C385.677 149.523 388.465 156.44 392.46 164.77C384.471 162.018 379.496 157.258 373.391 152.349C372.713 155.324 372.261 157.109 371.884 158.82C371.432 160.754 370.753 163.059 368.492 162.836C366.909 162.687 365.402 161.051 364.121 159.787C363.066 158.745 362.312 157.407 361.407 156.217C364.95 153.391 365.327 151.085 362.086 149.523C356.132 146.623 350.78 142.904 345.504 138.888C343.771 137.475 341.284 136.88 339.098 136.285C337.666 135.913 336.008 135.913 335.782 137.921C337.063 142.235 345.052 140.747 344.223 147.738C338.796 147.069 335.254 144.02 331.335 141.788C317.316 133.682 302.242 129.07 286.037 128.104C273.601 127.211 265.16 135.02 265.235 147.069ZM193.181 322.59C194.161 322.441 194.463 323.036 194.764 323.631C194.237 323.334 193.634 323.036 193.181 322.59ZM309.402 457.875C308.724 457.949 308.121 458.024 307.442 458.024C308.272 457.206 308.875 457.577 309.402 457.875ZM318.823 390.418C318.07 389.749 317.467 388.782 316.939 387.89C317.994 388.038 319.049 388.113 320.029 388.485C320.482 388.633 320.557 389.6 320.858 390.195C320.105 390.344 319.2 390.716 318.823 390.418ZM335.556 399.418C336.234 398.451 337.063 398.302 337.364 398.599C338.043 399.418 338.42 400.459 338.872 401.426C336.912 401.202 336.158 400.31 335.556 399.418ZM387.259 434.15C386.958 434.075 386.732 433.629 386.807 433.332C386.958 432.886 387.41 432.662 387.787 432.811C388.088 432.96 388.239 433.183 388.164 433.555C388.164 433.927 387.636 434.224 387.259 434.15ZM388.993 440.472C389.144 440.472 389.219 440.62 389.52 440.918C388.993 440.918 388.767 440.992 388.993 440.472ZM389.37 438.092C389.37 437.794 389.747 437.571 389.897 437.72C390.048 437.794 390.199 438.017 389.37 438.092ZM464.891 482.344C463.458 477.584 460.519 474.535 456.449 471.932C454.64 470.816 453.51 468.51 452.228 466.725C450.269 464.048 448.46 461.296 445.445 456.982C451.927 457.652 455.922 461.073 459.916 463.527C463.986 466.056 464.664 472.155 469.262 474.832C469.714 478.402 470.166 481.898 470.619 485.393C467.378 486.137 465.493 484.426 464.891 482.344ZM265.009 180.462C265.085 181.206 265.235 182.024 265.311 182.768C264.783 181.504 264.858 180.983 265.009 180.462ZM504.384 333.3C499.561 335.903 497.074 334.266 495.114 327.052C499.259 328.093 501.822 330.548 504.384 333.3ZM433.838 295.89C428.939 294.849 426.527 293.138 423.965 292.022C423.437 291.799 423.362 290.832 422.759 289.419C427.205 289.345 429.768 291.651 433.838 295.89ZM322.743 214.897C323.496 215.641 324.175 216.385 324.702 217.277C323.119 217.723 322.441 216.905 321.838 216.013C322.743 214.897 322.743 214.897 322.743 214.897ZM402.333 163.357C402.333 163.133 403.992 162.836 404.067 162.985C404.444 163.877 404.595 164.844 404.821 165.737C404.218 165.885 403.539 166.034 402.56 166.257C402.484 165.216 402.258 164.249 402.333 163.357ZM400.148 173.992C400.751 174.364 401.58 174.513 401.881 175.033C402.183 175.479 401.881 176.298 401.806 176.893C401.203 176.595 400.298 176.446 399.997 175.926C399.771 175.554 400.072 174.736 400.148 173.992ZM287.545 186.487C285.661 185.817 285.284 184.479 284.907 183.14L287.545 186.487Z" fill="#FF8E00"/>
<path d="M152.064 353.561C149.159 353.645 146.766 352.55 144.545 350.781C142.067 348.76 138.991 347.496 135.744 347.496C131.558 347.412 127.884 345.98 124.21 344.464C119.938 342.779 115.666 342.021 111.308 344.043C110.539 344.38 109.514 344.716 108.916 344.464C106.438 343.284 103.875 343.79 101.397 344.043C100.372 344.211 99.3463 344.295 98.321 344.211C96.0141 344.043 94.2199 344.632 92.8528 346.654C92.3402 347.496 91.4003 348.338 90.4605 348.507C85.7612 349.518 82.1727 352.466 78.2424 354.74C74.4829 356.846 72.0052 359.71 70.1254 363.163C68.5875 366.027 66.9641 368.47 64.3155 370.408C64.1446 370.492 63.9737 370.66 63.8028 370.744C61.2396 372.429 59.958 374.872 60.2143 378.241C60.3852 381.021 60.0434 383.801 58.9327 386.412C58.6763 387.086 58.3346 387.844 57.9074 388.518C57.1384 389.865 56.7966 391.803 57.053 393.319C57.7365 396.52 58.5909 399.805 60.0434 402.753C61.1541 405.112 61.8377 407.386 62.2649 409.829C62.5212 411.176 63.1193 412.693 64.0591 413.703C67.904 417.747 70.1255 422.127 68.673 427.855C68.3312 429.118 68.673 430.971 69.4419 431.982C71.6634 435.014 74.1412 437.794 76.7044 440.574C78.8405 442.932 81.5746 442.343 82.5144 439.394C83.0271 437.878 82.5144 435.941 84.3941 435.014C87.47 438.215 87.5555 438.131 92.8528 439.31C96.0996 440.068 99.2609 441.248 101.995 443.438C106.011 446.723 109.77 450.429 115.324 451.356C115.922 451.44 116.52 451.777 116.947 452.198C118.571 453.883 120.621 453.967 122.757 454.135C124.552 454.304 126.431 454.641 128.225 454.893C128.225 455.315 128.225 455.82 128.225 456.241C122.757 456.831 118.314 459.695 113.957 462.39C112.419 463.401 110.966 463.738 109.258 463.401C105.584 462.643 101.824 461.969 98.4919 461.379C96.185 463.232 94.3053 464.917 92.2547 466.265C89.8624 467.781 88.5808 469.718 89.008 472.498C89.2643 474.014 89.1789 475.278 87.9827 476.457C86.1884 478.226 86.2739 480.248 87.9827 482.016C90.1187 484.375 89.9478 486.397 87.8118 488.587C87.2137 489.176 86.9574 489.934 86.3593 490.861C87.3846 492.209 88.4099 493.472 89.3497 494.736C89.2643 496.673 89.3497 498.526 89.0934 500.379C88.6662 503.917 86.9574 506.613 83.2834 507.792C81.7455 508.297 80.1221 508.803 78.6696 509.308C73.2013 505.181 70.4672 505.349 65.4262 509.898C64.3154 510.908 63.2047 511.751 62.1794 512.677C61.7522 516.973 61.7522 516.973 59.3599 520.174C58.2491 521.69 56.9675 523.038 55.8568 524.554C50.8158 531.377 50.3885 533.315 52.3537 540.643C52.4391 541.064 52.5246 541.485 52.6955 541.822C54.7461 545.191 56.7112 548.813 61.5813 548.645C62.4357 548.645 63.4611 548.561 63.9737 549.066C66.7078 551.593 69.8691 550.751 73.0305 550.33C74.483 550.161 75.9354 549.908 77.3879 549.74C80.6347 549.487 83.198 550.414 84.4796 553.615C85.5049 556.226 87.5555 557.911 90.1187 559.174C92.3402 560.269 94.5617 561.87 96.0142 563.807C99.0046 567.766 102.935 569.029 107.549 569.282C109.172 569.366 110.881 569.535 112.504 569.956C118.143 571.304 123.783 571.556 129.336 569.45C131.558 568.608 133.779 568.187 136.086 569.366C136.94 569.787 138.308 569.956 139.076 569.619C143.776 567.513 148.133 564.986 148.817 559.09C149.159 556.479 149.842 553.867 150.269 551.425C157.532 549.235 159.326 548.813 160.266 543.844C161.718 543.928 163.171 544.096 164.623 543.928C167.016 543.591 168.127 542.412 167.87 540.137C167.614 537.695 167.443 534.999 166.418 532.809C164.965 529.777 165.307 527.25 166.759 524.47C167.443 523.206 168.468 521.775 168.297 520.511C167.785 516.215 168.383 511.667 165.734 507.792C165.563 507.539 165.82 507.034 165.905 506.191C166.93 505.939 168.041 505.602 169.237 505.433C173.424 504.675 176.842 503.075 178.038 498.526C178.55 496.589 180.174 494.904 180.857 492.967C182.395 488.839 185.471 486.818 189.487 485.302C197.006 482.438 204.354 479.237 211.702 476.204C214.607 475.025 217.426 473.677 220.331 472.498C220.758 472.33 221.186 472.161 221.613 471.993C225.372 470.477 228.192 470.561 232.207 472.582C229.559 473.256 227.423 473.762 224.689 474.435V474.52C224.945 478.479 222.296 480.163 218.964 481.595C214.948 483.28 212.812 486.565 212.385 490.861C212.043 494.146 211.958 497.515 211.702 500.716C212.898 503.327 215.29 505.096 217.597 505.265C222.467 505.602 225.458 508.803 228.875 511.414C229.302 511.751 230.071 511.835 230.926 512.088C233.916 510.066 236.992 507.96 240.239 505.854C245.365 508.718 250.321 510.908 255.875 508.887C256.985 507.792 258.011 506.781 259.036 505.77C260.318 506.276 261.257 506.613 262.283 506.95C263.308 507.286 264.248 507.708 265.273 507.876C267.836 508.129 269.716 505.518 268.52 503.243C267.922 502.148 267.067 501.222 266.384 500.127C265.444 498.695 265.529 497.431 266.64 496.083C267.153 495.41 267.666 494.736 268.264 494.062C268.349 493.893 268.52 493.725 268.605 493.641C274.415 495.241 276.893 490.777 279.969 487.239C281.763 488.334 283.13 489.513 284.839 490.271C287.317 491.366 289.966 492.209 292.529 492.967C295.348 493.725 298.168 494.736 301.244 493.978C303.38 493.388 305.26 492.546 305.516 490.019C305.687 488.334 306.456 486.986 308.079 486.312C308.165 486.312 308.165 486.228 308.25 486.228L309.446 486.649L312.009 487.576C312.18 487.407 312.351 487.239 312.522 487.155C314.402 485.47 316.111 483.87 317.99 482.606C320.212 481.09 321.579 479.237 321.835 476.962C321.835 476.71 321.921 476.457 321.921 476.204C323.715 475.362 325.936 475.109 326.62 473.93C329.183 469.718 332.344 465.507 332.088 460.2C332.003 458.852 331.917 457.589 331.746 456.241C331.576 454.22 331.319 452.282 331.234 450.261C331.063 447.397 330.208 445.122 328.072 443.017C326.791 441.753 326.107 439.816 325.253 438.215C324.057 436.025 322.946 433.835 320.895 432.15C319.785 431.224 318.674 430.045 318.076 428.781C316.965 426.17 314.914 424.991 312.266 424.401C311.668 424.233 311.07 423.98 310.472 423.727C305.174 421.2 300.731 417.073 294.836 415.556C292.7 413.03 289.282 412.524 286.719 410.755C283.985 408.818 281.763 406.291 279.286 404.017C278.517 403.258 277.662 402.585 276.893 401.995C275.184 400.731 273.305 399.721 270.998 400.142C269.203 400.479 267.751 399.973 266.128 399.215C264.419 398.457 262.539 397.783 260.659 397.699C254.678 397.278 249.039 395.677 243.742 392.898C240.581 391.213 237.078 389.865 233.404 390.287C227.594 390.96 221.698 391.297 215.974 392.308C214.863 392.477 213.752 392.729 212.727 392.982C211.531 393.235 209.993 393.487 209.053 392.898C205.208 390.455 200.85 388.602 197.433 385.57C196.92 385.064 196.408 384.559 195.895 384.053C195.81 383.969 195.639 383.801 195.553 383.716C192.819 380.6 189.829 377.652 186.924 374.619C186.069 373.693 185.129 372.766 184.019 372.176C179.917 370.071 175.731 368.049 171.544 366.112C169.835 365.354 167.956 364.764 166.247 364.09C164.367 363.332 162.829 362.153 162.573 360.131C162.402 358.952 162.06 357.941 161.548 357.183C160.949 356.256 160.18 355.582 159.155 355.161C158.13 354.656 156.934 354.487 155.567 354.403C154.627 353.982 153.345 353.477 152.064 353.561Z" fill="#33691E"/>
</svg>
